<svg xmlns="http://www.w3.org/2000/svg" xmlns:xlink="http://www.w3.org/1999/xlink" width="1080" zoomAndPan="magnify" viewBox="0 0 810 809.999993" height="1080" preserveAspectRatio="xMidYMid meet" version="1.0"><path fill="#ffffff" d="M 220.597656 338.71875 C 218.414062 339.398438 234 353.402344 234.90625 354.90625 C 233.398438 353.175781 227.902344 346.925781 220.597656 338.71875 Z M 220.597656 338.71875 " fill-opacity="1" fill-rule="nonzero"/><path fill="#ffffff" d="M 203.507812 191.140625 C 171.429688 170.664062 144.851562 202.585938 180.617188 227.285156 C 212.691406 247.761719 239.347656 215.761719 203.507812 191.140625 Z M 200.042969 215.160156 C 196.578125 215.238281 185.359375 209.515625 182.5 203.1875 C 186.941406 202.8125 198.386719 208.308594 201.550781 215.3125 C 201.171875 215.238281 200.644531 215.238281 200.042969 215.160156 Z M 200.042969 215.160156 " fill-opacity="1" fill-rule="nonzero"/><path fill="#ffffff" d="M 702.785156 449.929688 C 700.375 448.046875 697.816406 446.390625 695.105469 444.960938 C 821.824219 371.472656 493.464844 214.105469 450.097656 194.90625 C 267.65625 32.347656 319.160156 35.207031 277.671875 19.167969 C 230.011719 0.121094 212.84375 25.644531 181.371094 39.949219 C -11.835938 66.753906 127.382812 258.679688 220.148438 339.699219 C 220.296875 339.320312 220.449219 339.019531 220.523438 338.644531 C 249.4375 368.609375 248.53125 372.601562 267.128906 427.71875 C 238.667969 435.097656 239.347656 472.292969 238.746094 500.226562 C 224.136719 483.433594 227.75 436.074219 201.324219 428.394531 C 126.855469 433.816406 166.761719 486.523438 192.964844 520.179688 C 156.75 520.179688 112.550781 486.523438 108.636719 543.671875 C 111.796875 603.832031 153.660156 556.996094 193.871094 572.808594 C 256.738281 607.292969 228.429688 602.777344 296.796875 601.121094 C 350.859375 630.9375 371.1875 593.667969 347.921875 559.785156 C 376.457031 535.992188 380.976562 536.742188 372.46875 477.710938 C 391.441406 495.40625 451.601562 522.964844 459.882812 536.820312 C 434.132812 579.960938 420.203125 665.648438 454.011719 680.78125 C 322.621094 680.40625 369.378906 746.4375 402.734375 748.246094 C 442.71875 742.675781 481.417969 726.5625 526.445312 722.496094 C 491.960938 810.589844 568.984375 826.25 579.152344 775.425781 C 581.863281 756.226562 570.71875 740.867188 583.066406 720.988281 C 609.871094 699.304688 657.230469 672.125 660.542969 662.863281 C 700.75 591.707031 754.886719 481.328125 702.785156 449.929688 Z M 591.949219 290.984375 C 633.0625 310.710938 753.382812 411.453125 682.832031 430.351562 C 644.054688 444.882812 650.003906 436.828125 637.203125 405.355469 C 640.214844 404.828125 656.253906 400.386719 658.585938 399.480469 C 615.292969 398.578125 595.792969 302.652344 577.496094 283.078125 C 582.085938 285.5625 586.980469 288.195312 591.949219 290.984375 Z M 703.011719 519.125 C 630.726562 765.335938 547.601562 636.585938 560.628906 773.019531 C 558.820312 781.300781 553.398438 788.152344 545.269531 784.613281 C 497.683594 731.378906 650.757812 660.679688 410.640625 729.949219 C 381.429688 731.53125 379.09375 704.726562 402.511719 702.242188 C 442.039062 706.53125 471.328125 696.066406 509.128906 685.828125 C 550.613281 648.707031 619.28125 600.894531 650.53125 539.226562 C 543.839844 672.648438 394.226562 760.367188 479.386719 523.191406 C 471.628906 518.824219 350.40625 450.078125 339.867188 420.789062 C 369.078125 530.496094 368.476562 533.355469 290.773438 570.398438 C 296.421875 572.582031 338.734375 560.535156 338.8125 584.253906 C 337.378906 601.648438 328.269531 594.042969 315.695312 587.566406 C 301.691406 582.222656 292.957031 580.714844 275.414062 581.769531 C 238.367188 594.496094 215.328125 554.589844 196.355469 554.136719 C 168.417969 542.164062 148.617188 559.257812 130.246094 556.246094 C 123.394531 548.566406 126.855469 523.191406 141.3125 528.535156 C 299.65625 569.121094 133.785156 456.027344 191.835938 446.164062 C 199.816406 443.605469 202.078125 452.640625 204.9375 460.621094 C 209.90625 490.4375 237.992188 553.835938 255.988281 511.066406 C 262.988281 487.800781 249.4375 447.144531 276.917969 445.1875 C 299.808594 451.660156 238.367188 527.03125 280.609375 512.421875 C 298 505.949219 312.984375 499.699219 308.769531 499.324219 C 305.457031 485.242188 262.238281 345.949219 255.535156 350.164062 C 254.480469 349.109375 253.425781 348.054688 251.621094 346.324219 C 88.757812 198.898438 51.035156 69.464844 184.984375 58.625 C 224.0625 44.015625 225.492188 22.632812 267.960938 35.507812 C 306.660156 50.492188 295.140625 79.253906 326.6875 106.585938 C 377.738281 142.503906 406.425781 188.582031 453.257812 219.980469 C 485.183594 237.148438 543.007812 249.570312 559.800781 274.34375 C 567.78125 324.414062 616.875 390.972656 636.074219 451.058594 C 666.039062 465.515625 598.652344 451.738281 508.902344 597.730469 C 501.972656 607.144531 497.382812 620.472656 509.050781 602.851562 C 528.554688 554.664062 722.136719 362.890625 703.011719 519.125 Z M 703.011719 519.125 " fill-opacity="1" fill-rule="nonzero"/><path fill="#ffffff" d="M 234.90625 354.90625 C 235.128906 354.003906 218.492188 340.300781 220.597656 338.71875 C 227.902344 346.925781 233.398438 353.175781 234.90625 354.90625 Z M 234.90625 354.90625 " fill-opacity="1" fill-rule="nonzero"/></svg>