<svg xmlns="http://www.w3.org/2000/svg" xmlns:xlink="http://www.w3.org/1999/xlink" width="1080" zoomAndPan="magnify" viewBox="0 0 810 809.999993" height="1080" preserveAspectRatio="xMidYMid meet" version="1.0"><path fill="#000000" d="M 220.699219 338.773438 C 218.515625 339.449219 234.105469 353.457031 235.011719 354.964844 C 233.503906 353.230469 228.003906 346.980469 220.699219 338.773438 Z M 220.699219 338.773438 " fill-opacity="1" fill-rule="nonzero"/><path fill="#000000" d="M 203.597656 191.171875 C 171.511719 170.6875 144.921875 202.617188 180.699219 227.320312 C 212.789062 247.800781 239.453125 215.796875 203.597656 191.171875 Z M 200.132812 215.195312 C 196.667969 215.269531 185.445312 209.546875 182.582031 203.222656 C 187.027344 202.84375 198.476562 208.34375 201.640625 215.34375 C 201.265625 215.269531 200.738281 215.269531 200.132812 215.195312 Z M 200.132812 215.195312 " fill-opacity="1" fill-rule="nonzero"/><path fill="#000000" d="M 703.082031 450 C 700.671875 448.117188 698.109375 446.460938 695.398438 445.027344 C 822.167969 371.53125 493.675781 214.140625 450.289062 194.9375 C 267.777344 32.351562 319.296875 35.214844 277.792969 19.171875 C 230.113281 0.121094 212.941406 25.648438 181.453125 39.957031 C -11.832031 66.765625 127.445312 258.722656 220.246094 339.75 C 220.398438 339.375 220.546875 339.074219 220.621094 338.695312 C 249.546875 368.667969 248.644531 372.660156 267.25 427.785156 C 238.777344 435.164062 239.453125 472.367188 238.851562 500.304688 C 224.238281 483.511719 227.855469 436.144531 201.414062 428.460938 C 126.917969 433.882812 166.839844 486.597656 193.054688 520.261719 C 156.824219 520.261719 112.605469 486.597656 108.691406 543.753906 C 111.851562 603.925781 153.734375 557.085938 193.957031 572.898438 C 256.855469 607.390625 228.53125 602.871094 296.925781 601.214844 C 351.011719 631.035156 371.347656 593.757812 348.074219 559.871094 C 376.621094 536.074219 381.140625 536.828125 372.628906 477.789062 C 391.609375 495.484375 451.796875 523.046875 460.082031 536.902344 C 434.320312 580.054688 420.386719 665.75 454.207031 680.886719 C 322.765625 680.511719 369.539062 746.554688 402.910156 748.363281 C 442.90625 742.789062 481.625 726.675781 526.667969 722.609375 C 492.171875 810.714844 569.226562 826.378906 579.398438 775.546875 C 582.109375 756.34375 570.960938 740.984375 583.3125 721.101562 C 610.128906 699.414062 657.507812 672.226562 660.824219 662.964844 C 701.046875 591.800781 755.207031 481.402344 703.082031 450 Z M 592.203125 291.027344 C 633.328125 310.757812 753.699219 411.519531 683.121094 430.417969 C 644.328125 444.953125 650.277344 436.894531 637.472656 405.417969 C 640.484375 404.890625 656.53125 400.449219 658.863281 399.542969 C 615.550781 398.640625 596.042969 302.699219 577.738281 283.121094 C 582.335938 285.605469 587.230469 288.242188 592.203125 291.027344 Z M 703.304688 519.207031 C 630.996094 765.457031 547.835938 636.683594 560.867188 773.136719 C 559.058594 781.421875 553.636719 788.273438 545.5 784.734375 C 497.894531 731.492188 651.03125 660.78125 410.820312 730.0625 C 381.59375 731.644531 379.257812 704.835938 402.683594 702.351562 C 442.230469 706.644531 471.53125 696.175781 509.34375 685.933594 C 550.847656 648.808594 619.542969 600.988281 650.804688 539.3125 C 544.070312 672.753906 394.398438 760.488281 479.589844 523.273438 C 471.832031 518.90625 350.558594 450.148438 340.011719 420.855469 C 369.238281 530.578125 368.636719 533.4375 290.902344 570.488281 C 296.550781 572.671875 338.882812 560.625 338.957031 584.34375 C 337.527344 601.742188 328.414062 594.136719 315.832031 587.660156 C 301.824219 582.3125 293.085938 580.804688 275.535156 581.859375 C 238.476562 594.585938 215.425781 554.675781 196.445312 554.222656 C 168.496094 542.25 148.6875 559.34375 130.308594 556.332031 C 123.453125 548.652344 126.917969 523.273438 141.378906 528.621094 C 299.789062 569.210938 133.847656 456.097656 191.925781 446.234375 C 199.910156 443.671875 202.167969 452.710938 205.03125 460.691406 C 210.003906 490.515625 238.097656 553.921875 256.101562 511.148438 C 263.105469 487.878906 249.546875 447.214844 277.042969 445.253906 C 299.941406 451.730469 238.476562 527.113281 280.730469 512.503906 C 298.132812 506.027344 313.121094 499.777344 308.902344 499.398438 C 305.589844 485.316406 262.351562 346 255.648438 350.21875 C 254.59375 349.164062 253.539062 348.109375 251.730469 346.378906 C 88.804688 198.929688 51.066406 69.476562 185.070312 58.632812 C 224.164062 44.023438 225.59375 22.636719 268.078125 35.515625 C 306.792969 50.5 295.269531 79.265625 326.832031 106.601562 C 377.902344 142.523438 406.601562 188.613281 453.453125 220.015625 C 485.390625 237.183594 543.242188 249.609375 560.039062 274.386719 C 568.023438 324.464844 617.132812 391.035156 636.34375 451.128906 C 666.320312 465.585938 598.90625 451.808594 509.117188 597.824219 C 502.1875 607.238281 497.59375 620.566406 509.269531 602.945312 C 528.777344 554.75 722.4375 362.945312 703.304688 519.207031 Z M 703.304688 519.207031 " fill-opacity="1" fill-rule="nonzero"/><path fill="#000000" d="M 235.011719 354.964844 C 235.234375 354.058594 218.589844 340.355469 220.699219 338.773438 C 228.003906 346.980469 233.503906 353.230469 235.011719 354.964844 Z M 235.011719 354.964844 " fill-opacity="1" fill-rule="nonzero"/></svg>